<?xml version="1.0" standalone="no"?><!DOCTYPE svg PUBLIC "-//W3C//DTD SVG 1.1//EN" "http://www.w3.org/Graphics/SVG/1.1/DTD/svg11.dtd"><svg t="1505961835864" class="icon" style="" viewBox="0 0 1024 1024" version="1.1" xmlns="http://www.w3.org/2000/svg" p-id="1735" xmlns:xlink="http://www.w3.org/1999/xlink" width="200" height="200"><defs><style type="text/css"></style></defs><path d="M831.341 956.607H192.662c-10.669 0-19.305-8.649-19.305-19.305V81.423c0-10.669 8.636-19.305 19.305-19.305h638.692c10.655 0 19.305 8.636 19.305 19.305v855.879c-0.015 10.655-8.649 19.305-19.318 19.305z m-619.374-38.611h600.08V100.729h-600.08v817.267z" p-id="1736"></path><path d="M740.449 262.729H544.175c-10.655 0-19.305-8.636-19.305-19.305s8.649-19.305 19.305-19.305h196.274c10.655 0 19.305 8.636 19.305 19.305s-8.649 19.305-19.305 19.305zM740.449 367.054H544.175c-10.655 0-19.305-8.636-19.305-19.305s8.649-19.305 19.305-19.305h196.274c10.655 0 19.305 8.636 19.305 19.305s-8.649 19.305-19.305 19.305zM740.449 471.394H544.175c-10.655 0-19.305-8.636-19.305-19.305s8.649-19.305 19.305-19.305h196.274c10.655 0 19.305 8.636 19.305 19.305s-8.649 19.305-19.305 19.305zM740.449 575.721H544.175c-10.655 0-19.305-8.649-19.305-19.305s8.649-19.305 19.305-19.305h196.274c10.655 0 19.305 8.649 19.305 19.305s-8.649 19.305-19.305 19.305zM740.449 674.578H283.551c-10.669 0-19.305-8.649-19.305-19.305s8.636-19.305 19.305-19.305h456.898c10.655 0 19.305 8.649 19.305 19.305s-8.649 19.305-19.305 19.305zM740.449 777.544H283.551c-10.669 0-19.305-8.649-19.305-19.305s8.636-19.305 19.305-19.305h456.898c10.655 0 19.305 8.649 19.305 19.305s-8.649 19.305-19.305 19.305zM486.027 574.604H296.421c-10.669 0-19.305-8.649-19.305-19.305V242.306c0-10.669 8.636-19.305 19.305-19.305h189.606c10.669 0 19.305 8.636 19.305 19.305v312.993c0 10.655-8.636 19.305-19.305 19.305z m-170.301-38.612H466.72V261.61H315.726v274.382z" p-id="1737"></path></svg>